<svg data-v-fde0c5aa="" xmlns="http://www.w3.org/2000/svg" viewBox="0 0 300 300" class="iconLeftSlogan"><!----><defs data-v-fde0c5aa=""><linearGradient data-v-fde0c5aa="" gradientTransform="rotate(25)" id="1c769f51-6025-44a4-bde3-06ff36d74d3a" x1="0%" y1="0%" x2="100%" y2="0%"><stop data-v-fde0c5aa="" offset="0%" stop-color="#0076DD" stop-opacity="1"></stop><stop data-v-fde0c5aa="" offset="100%" stop-color="#00CDE9" stop-opacity="1"></stop></linearGradient></defs><rect data-v-fde0c5aa="" fill="url(#1c769f51-6025-44a4-bde3-06ff36d74d3a)" x="0" y="0" width="300px" height="300px" class="logo-background-square"></rect><defs data-v-fde0c5aa=""><!----></defs><g data-v-fde0c5aa="" id="8f82f001-3434-46a5-9efd-86f129c056f7" fill="#ffffff" transform="matrix(3.4234777277499897,0,0,3.4234777277499897,88.20988167941887,109.94186564830159)"><path d="M4.97 13.92L4.97 13.92L4.97 13.92Q3.01 13.92 3.01 12.04L3.01 12.04L3.01 7.83L1.44 7.83L1.44 6.59L3.01 6.59L3.01 4.31L4.41 3.64L4.41 6.59L6.82 6.59L6.82 7.83L4.41 7.83L4.41 11.70L4.41 11.70Q4.41 12.18 4.63 12.42L4.63 12.42L4.63 12.42Q4.86 12.66 5.43 12.66L5.43 12.66L5.43 12.66Q6.06 12.66 6.69 12.29L6.69 12.29L6.54 13.59L6.54 13.59Q5.92 13.92 4.97 13.92ZM14.74 6.43L14.74 6.43L14.74 6.43Q15.74 6.43 16.37 6.79L16.37 6.79L16.37 9.35L14.99 9.35L14.99 7.77L14.99 7.77Q14.90 7.76 14.70 7.76L14.70 7.76L14.70 7.76Q13.62 7.76 12.94 8.29L12.94 8.29L12.94 8.29Q12.26 8.82 12.26 9.81L12.26 9.81L12.26 12.50L14.31 12.50L14.31 13.75L9.34 13.75L9.34 12.50L10.84 12.50L10.84 7.83L9.34 7.83L9.34 6.59L12.17 6.59L12.17 7.77L12.17 7.77Q12.50 7.15 13.22 6.79L13.22 6.79L13.22 6.79Q13.94 6.43 14.74 6.43ZM21.22 13.92L21.22 13.92L21.22 13.92Q18.54 13.92 18.54 10.78L18.54 10.78L18.54 6.59L19.95 6.59L19.95 10.68L19.95 10.68Q19.95 11.68 20.38 12.13L20.38 12.13L20.38 12.13Q20.80 12.59 21.50 12.59L21.50 12.59L21.50 12.59Q23.17 12.59 23.17 10.71L23.17 10.71L23.17 6.59L24.58 6.59L24.58 13.75L23.17 13.75L23.17 13.05L23.17 13.05Q22.50 13.92 21.22 13.92ZM29.11 13.75L27.97 13.75L26.15 6.59L27.47 6.59L28.45 10.75L28.45 10.75Q28.53 11.09 28.57 11.40L28.57 11.40L28.57 11.40Q28.67 10.88 28.70 10.74L28.70 10.74L29.64 6.59L30.73 6.59L31.68 10.74L31.68 10.74Q31.71 10.85 31.81 11.44L31.81 11.44L31.81 11.44Q31.86 11.07 31.95 10.74L31.95 10.74L32.90 6.59L34.22 6.59L32.40 13.75L31.28 13.75L30.35 9.73L30.35 9.73Q30.20 8.93 30.18 8.88L30.18 8.88L30.18 8.88Q30.16 9.03 30.09 9.32L30.09 9.32L30.09 9.32Q30.02 9.62 30.00 9.72L30.00 9.72L29.11 13.75ZM42 9.84L42 9.84L42 9.84Q42 10.37 41.96 10.72L41.96 10.72L37.03 10.72L37.03 10.72Q37.18 11.62 37.68 12.14L37.68 12.14L37.68 12.14Q38.18 12.66 38.98 12.66L38.98 12.66L38.98 12.66Q39.91 12.66 40.60 12.01L40.60 12.01L41.43 12.91L41.43 12.91Q40.42 13.92 38.96 13.92L38.96 13.92L38.96 13.92Q37.41 13.92 36.51 12.87L36.51 12.87L36.51 12.87Q35.62 11.83 35.62 10.16L35.62 10.16L35.62 10.16Q35.62 8.41 36.52 7.42L36.52 7.42L36.52 7.42Q37.42 6.43 38.96 6.43L38.96 6.43L38.96 6.43Q40.29 6.43 41.15 7.29L41.15 7.29L41.15 7.29Q42 8.16 42 9.84ZM37.00 9.51L37.00 9.51L40.61 9.51L40.61 9.51Q40.57 8.55 40.10 8.11L40.10 8.11L40.10 8.11Q39.62 7.66 38.96 7.66L38.96 7.66L38.96 7.66Q38.09 7.66 37.60 8.14L37.60 8.14L37.60 8.14Q37.11 8.62 37.00 9.51ZM48.13 3.64L48.13 12.50L50.18 12.50L50.18 13.75L44.67 13.75L44.67 12.50L46.73 12.50L46.73 4.87L45.04 4.87L44.39 3.64L48.13 3.64Z"></path></g><defs data-v-fde0c5aa=""><!----></defs><g data-v-fde0c5aa="" id="d937574e-d873-469b-b62b-d7524c86b4bc" stroke="none" fill="#ffffff" transform="matrix(2.4494835700063105,0,0,2.4494835700063105,20.876881376511125,110.80826287989903)"><path d="M18.396 26.495L7.807 15.905 18.432 5.28l.707.707-9.918 9.918 9.882 9.883z"></path><path d="M23.194 1v4.194H19V1h4.194m1-1H18v6.194h6.194V0zM23.194 26.806V31H19v-4.194h4.194m1-1H18V32h6.194v-6.194z"></path></g><defs data-v-fde0c5aa=""><!----></defs><g data-v-fde0c5aa="" id="faefac27-372e-4e49-bf5a-4867252ca461" fill="#ffffff" transform="matrix(0.8504603098477426,0,0,0.8504603098477426,92.90156091550062,164.76464229664333)"><path d="M0.28 5.32L0.28 5.32L0.28 5.32Q0.28 4.76 0.42 3.88L0.42 3.88L0.42 3.88Q0.42 3.85 0.43 3.78L0.43 3.78L0.43 3.78Q0.43 3.71 0.44 3.69L0.44 3.69L0.44 3.69Q0.45 3.67 0.46 3.62L0.46 3.62L0.46 3.62Q0.46 3.57 0.48 3.55L0.48 3.55L0.48 3.55Q0.49 3.53 0.51 3.49L0.51 3.49L0.51 3.49Q0.53 3.46 0.56 3.44L0.56 3.44L0.56 3.44Q0.59 3.43 0.63 3.42L0.63 3.42L0.63 3.42Q0.67 3.40 0.73 3.39L0.73 3.39L0.73 3.39Q0.78 3.39 0.85 3.39L0.85 3.39L0.85 3.39Q1.08 3.39 2.04 3.44L2.04 3.44L2.04 3.44Q3.00 3.50 4.80 3.50L4.80 3.50L4.80 3.50Q7.88 3.50 9.11 3.43L9.11 3.43L9.11 3.43Q9.13 3.43 9.16 3.42L9.16 3.42L9.16 3.42Q9.20 3.42 9.21 3.42L9.21 3.42L9.21 3.42Q9.37 3.42 9.42 3.50L9.42 3.50L9.42 3.50Q9.48 3.58 9.48 3.65L9.48 3.65L9.48 3.65Q9.48 3.75 9.52 4.24L9.52 4.24L9.52 4.24Q9.56 4.73 9.56 4.79L9.56 4.79L9.56 4.79Q9.56 5.14 9.52 5.23L9.52 5.23L9.52 5.23Q9.48 5.32 9.34 5.32L9.34 5.32L9.34 5.32Q9.23 5.32 9.18 5.15L9.18 5.15L9.18 5.15Q9.07 4.75 8.99 4.60L8.99 4.60L8.99 4.60Q8.90 4.45 8.62 4.34L8.62 4.34L8.62 4.34Q8.34 4.23 7.77 4.23L7.77 4.23L5.95 4.23L5.95 4.23Q5.61 4.23 5.54 4.36L5.54 4.36L5.54 4.36Q5.46 4.49 5.46 5.12L5.46 5.12L5.46 5.81L5.46 5.81Q5.46 7.69 5.44 9.11L5.44 9.11L5.44 9.11Q5.42 10.54 5.42 10.93L5.42 10.93L5.42 10.93Q5.42 11.13 5.41 11.43L5.41 11.43L5.41 11.43Q5.40 11.73 5.40 11.84L5.40 11.84L5.40 11.84Q5.40 12.45 5.60 12.64L5.60 12.64L5.60 12.64Q5.78 12.81 6.01 12.90L6.01 12.90L6.01 12.90Q6.23 12.99 6.39 13.01L6.39 13.01L6.39 13.01Q6.55 13.02 6.66 13.08L6.66 13.08L6.66 13.08Q6.78 13.13 6.78 13.26L6.78 13.26L6.78 13.26Q6.78 13.41 6.71 13.45L6.71 13.45L6.71 13.45Q6.64 13.50 6.44 13.50L6.44 13.50L6.44 13.50Q6.27 13.50 5.70 13.44L5.70 13.44L5.70 13.44Q5.12 13.38 4.89 13.38L4.89 13.38L4.89 13.38Q4.72 13.38 4.21 13.43L4.21 13.43L4.21 13.43Q3.70 13.48 3.46 13.48L3.46 13.48L3.46 13.48Q2.94 13.48 2.94 13.26L2.94 13.26L2.94 13.26Q2.94 13.12 3.02 13.07L3.02 13.07L3.02 13.07Q3.11 13.02 3.35 12.98L3.35 12.98L3.35 12.98Q3.60 12.95 3.67 12.94L3.67 12.94L3.67 12.94Q4.14 12.82 4.20 12.38L4.20 12.38L4.20 12.38Q4.34 11.14 4.34 7.08L4.34 7.08L4.33 4.58L4.33 4.58Q4.33 4.31 4.17 4.25L4.17 4.25L4.17 4.25Q4.02 4.19 3.26 4.19L3.26 4.19L3.26 4.19Q2.28 4.19 1.79 4.24L1.79 4.24L1.79 4.24Q1.29 4.30 1.20 4.35L1.20 4.35L1.20 4.35Q1.12 4.40 1.01 4.54L1.01 4.54L1.01 4.54Q0.88 4.70 0.81 4.91L0.81 4.91L0.81 4.91Q0.73 5.11 0.71 5.24L0.71 5.24L0.71 5.24Q0.69 5.38 0.62 5.47L0.62 5.47L0.62 5.47Q0.56 5.56 0.43 5.56L0.43 5.56L0.43 5.56Q0.28 5.56 0.28 5.32ZM17.12 3.70L17.12 3.70L17.12 3.70Q17.12 3.47 17.53 3.47L17.53 3.47L19.85 3.47L19.85 3.47Q20.17 3.47 20.59 3.45L20.59 3.45L20.59 3.45Q21.01 3.43 21.25 3.43L21.25 3.43L21.25 3.43Q22.51 3.43 23.41 4.07L23.41 4.07L23.41 4.07Q24.30 4.70 24.30 5.78L24.30 5.78L24.30 5.78Q24.30 6.50 24.03 7.03L24.03 7.03L24.03 7.03Q23.76 7.57 23.43 7.81L23.43 7.81L23.43 7.81Q23.10 8.05 22.83 8.22L22.83 8.22L22.83 8.22Q22.55 8.40 22.55 8.46L22.55 8.46L22.55 8.46Q22.55 8.62 23.73 10.27L23.73 10.27L23.73 10.27Q24.91 11.91 25.34 12.38L25.34 12.38L25.34 12.38Q25.87 13.03 26.63 13.03L26.63 13.03L26.63 13.03Q26.82 13.03 26.82 13.20L26.82 13.20L26.82 13.20Q26.82 13.41 26.66 13.48L26.66 13.48L26.66 13.48Q26.49 13.55 25.79 13.55L25.79 13.55L25.79 13.55Q25.13 13.55 24.58 13.23L24.58 13.23L24.58 13.23Q23.88 12.82 22.22 10.09L22.22 10.09L22.22 10.09Q22.12 9.94 22.08 9.87L22.08 9.87L22.08 9.87Q21.41 8.78 21.04 8.78L21.04 8.78L20.75 8.78L19.89 8.78L19.89 8.78Q19.73 8.78 19.69 8.92L19.69 8.92L19.69 8.92Q19.66 9.06 19.66 9.77L19.66 9.77L19.66 9.77Q19.66 10.44 19.66 10.88L19.66 10.88L19.66 10.88Q19.66 11.31 19.66 11.43L19.66 11.43L19.66 11.43Q19.67 11.55 19.67 11.63L19.67 11.63L19.67 11.63Q19.67 11.70 19.67 11.75L19.67 11.75L19.67 11.75Q19.67 12.32 19.94 12.63L19.94 12.63L19.94 12.63Q20.20 12.95 20.53 13.00L20.53 13.00L20.53 13.00Q20.86 13.05 21.13 13.11L21.13 13.11L21.13 13.11Q21.39 13.17 21.39 13.31L21.39 13.31L21.39 13.31Q21.39 13.54 21.14 13.54L21.14 13.54L21.14 13.54Q21.13 13.54 20.17 13.49L20.17 13.49L20.17 13.49Q19.22 13.44 19.14 13.44L19.14 13.44L19.14 13.44Q18.73 13.44 18.17 13.47L18.17 13.47L18.17 13.47Q17.61 13.50 17.60 13.50L17.60 13.50L17.60 13.50Q17.30 13.50 17.30 13.27L17.30 13.27L17.30 13.27Q17.30 13.12 17.49 13.05L17.49 13.05L17.49 13.05Q17.67 12.99 17.89 12.96L17.89 12.96L17.89 12.96Q18.12 12.94 18.30 12.66L18.30 12.66L18.30 12.66Q18.48 12.38 18.48 11.86L18.48 11.86L18.48 11.86Q18.48 11.49 18.49 9.90L18.49 9.90L18.49 9.90Q18.49 8.30 18.49 7.45L18.49 7.45L18.49 7.45Q18.49 6.58 18.49 5.86L18.49 5.86L18.49 5.86Q18.48 5.14 18.48 5.08L18.48 5.08L18.48 5.08Q18.48 4.56 18.27 4.29L18.27 4.29L18.27 4.29Q18.06 4.02 17.80 3.98L17.80 3.98L17.80 3.98Q17.54 3.95 17.33 3.89L17.33 3.89L17.33 3.89Q17.12 3.84 17.12 3.70ZM19.66 5.54L19.66 5.94L19.66 5.94Q19.66 7.38 19.67 7.72L19.67 7.72L19.67 7.72Q19.68 8.06 19.77 8.12L19.77 8.12L19.77 8.12Q19.98 8.25 20.37 8.25L20.37 8.25L20.51 8.25L20.92 8.25L20.92 8.25Q22.11 8.25 22.62 7.70L22.62 7.70L22.62 7.70Q23.13 7.15 23.13 6.30L23.13 6.30L23.13 6.30Q23.13 5.43 22.45 4.72L22.45 4.72L22.45 4.72Q21.77 4.00 20.40 4.00L20.40 4.00L20.40 4.00Q19.88 4.00 19.77 4.28L19.77 4.28L19.77 4.28Q19.66 4.55 19.66 5.54L19.66 5.54ZM33.36 3.68L33.36 3.68L33.36 3.68Q33.36 3.61 33.38 3.58L33.38 3.58L33.38 3.58Q33.39 3.56 33.46 3.53L33.46 3.53L33.46 3.53Q33.53 3.50 33.68 3.50L33.68 3.50L33.68 3.50Q33.84 3.50 34.33 3.53L34.33 3.53L34.33 3.53Q34.82 3.56 35.27 3.56L35.27 3.56L35.27 3.56Q35.55 3.56 35.78 3.54L35.78 3.54L35.78 3.54Q36.01 3.53 36.58 3.53L36.58 3.53L36.58 3.53Q36.88 3.53 36.88 3.72L36.88 3.72L36.88 3.72Q36.88 3.85 36.78 3.88L36.78 3.88L36.78 3.88Q36.68 3.91 36.53 3.92L36.53 3.92L36.53 3.92Q36.39 3.93 36.24 4.02L36.24 4.02L36.24 4.02Q36.09 4.10 35.99 4.43L35.99 4.43L35.99 4.43Q35.90 4.76 35.90 5.32L35.90 5.32L35.90 5.71L35.90 5.71Q35.90 6.37 35.89 7.37L35.89 7.37L35.89 7.37Q35.88 8.37 35.88 8.74L35.88 8.74L35.88 8.74Q35.88 9.17 35.89 9.39L35.89 9.39L35.89 9.39Q35.90 9.62 35.92 10.04L35.92 10.04L35.92 10.04Q35.95 10.47 36.00 10.72L36.00 10.72L36.00 10.72Q36.05 10.96 36.16 11.32L36.16 11.32L36.16 11.32Q36.27 11.68 36.43 11.89L36.43 11.89L36.43 11.89Q36.60 12.10 36.84 12.35L36.84 12.35L36.84 12.35Q37.09 12.60 37.41 12.73L37.41 12.73L37.41 12.73Q37.73 12.87 38.16 12.96L38.16 12.96L38.16 12.96Q38.60 13.05 39.13 13.05L39.13 13.05L39.13 13.05Q39.58 13.05 39.83 13.03L39.83 13.03L39.83 13.03Q40.08 13.02 40.52 12.94L40.52 12.94L40.52 12.94Q40.96 12.87 41.22 12.72L41.22 12.72L41.22 12.72Q41.48 12.57 41.81 12.27L41.81 12.27L41.81 12.27Q42.14 11.97 42.32 11.54L42.32 11.54L42.32 11.54Q42.50 11.10 42.63 10.43L42.63 10.43L42.63 10.43Q42.76 9.76 42.76 8.90L42.76 8.90L42.76 8.90Q42.76 7.49 42.75 6.75L42.75 6.75L42.75 6.75Q42.74 6.01 42.74 5.94L42.74 5.94L42.74 5.94Q42.74 5.45 42.72 5.17L42.72 5.17L42.72 5.17Q42.70 4.89 42.58 4.55L42.58 4.55L42.58 4.55Q42.46 4.21 42.24 4.06L42.24 4.06L42.24 4.06Q42.10 3.96 41.87 3.93L41.87 3.93L41.87 3.93Q41.65 3.89 41.51 3.87L41.51 3.87L41.51 3.87Q41.37 3.85 41.37 3.75L41.37 3.75L41.37 3.75Q41.37 3.53 41.65 3.53L41.65 3.53L41.65 3.53Q41.73 3.53 42.20 3.54L42.20 3.54L42.20 3.54Q42.66 3.56 42.73 3.56L42.73 3.56L42.73 3.56Q43.06 3.56 43.44 3.54L43.44 3.54L43.44 3.54Q43.82 3.51 43.92 3.51L43.92 3.51L43.92 3.51Q44.21 3.51 44.21 3.70L44.21 3.70L44.21 3.70Q44.21 3.81 43.91 3.98L43.91 3.98L43.91 3.98Q43.61 4.16 43.54 4.30L43.54 4.30L43.54 4.30Q43.39 4.59 43.39 5.22L43.39 5.22L43.39 5.22Q43.39 5.32 43.39 5.62L43.39 5.62L43.39 5.62Q43.40 5.92 43.40 6.16L43.40 6.16L43.40 6.16Q43.40 8.85 43.18 10.28L43.18 10.28L43.18 10.28Q42.95 11.70 42.50 12.36L42.50 12.36L42.50 12.36Q42.04 13.01 41.13 13.40L41.13 13.40L41.13 13.40Q40.39 13.71 39.13 13.71L39.13 13.71L39.13 13.71Q36.79 13.71 35.81 12.81L35.81 12.81L35.81 12.81Q35.04 12.10 34.86 11.09L34.86 11.09L34.86 11.09Q34.68 10.09 34.68 7.64L34.68 7.64L34.68 7.41L34.68 7.41Q34.68 6.86 34.69 6.20L34.69 6.20L34.69 6.20Q34.71 5.54 34.71 5.39L34.71 5.39L34.71 5.39Q34.71 4.62 34.52 4.33L34.52 4.33L34.52 4.33Q34.34 4.05 33.67 3.95L33.67 3.95L33.67 3.95Q33.36 3.91 33.36 3.68ZM51.77 3.71L51.77 3.71L51.77 3.71Q51.77 3.51 52.15 3.51L52.15 3.51L52.15 3.51Q52.23 3.51 52.69 3.54L52.69 3.54L52.69 3.54Q53.14 3.56 53.69 3.56L53.69 3.56L53.69 3.56Q54.08 3.56 54.47 3.54L54.47 3.54L54.47 3.54Q54.87 3.51 54.89 3.51L54.89 3.51L54.89 3.51Q55.02 3.51 55.05 3.55L55.05 3.55L55.05 3.55Q55.09 3.58 55.09 3.68L55.09 3.68L55.09 3.68Q55.09 3.77 54.79 3.92L54.79 3.92L54.79 3.92Q54.49 4.07 54.49 4.34L54.49 4.34L54.49 4.34Q54.49 4.47 54.54 4.65L54.54 4.65L54.54 4.65Q54.60 4.83 54.77 5.22L54.77 5.22L54.77 5.22Q54.94 5.61 55.12 6.03L55.12 6.03L55.12 6.03Q55.31 6.45 55.71 7.33L55.71 7.33L55.71 7.33Q56.10 8.20 56.48 9.07L56.48 9.07L56.48 9.07Q56.57 9.30 56.76 9.74L56.76 9.74L56.76 9.74Q56.95 10.18 57.07 10.46L57.07 10.46L57.07 10.46Q57.19 10.74 57.33 11.05L57.33 11.05L57.33 11.05Q57.47 11.37 57.56 11.52L57.56 11.52L57.56 11.52Q57.65 11.68 57.69 11.68L57.69 11.68L57.69 11.68Q57.75 11.68 58.14 10.81L58.14 10.81L58.14 10.81Q58.53 9.94 58.84 9.17L58.84 9.17L58.84 9.17Q58.90 9.04 58.97 8.89L58.97 8.89L58.97 8.89Q59.05 8.74 59.09 8.63L59.09 8.63L59.09 8.63Q59.12 8.53 59.12 8.41L59.12 8.41L59.12 8.41Q59.12 8.25 58.28 6.36L58.28 6.36L58.28 6.36Q57.44 4.48 57.20 4.21L57.20 4.21L57.20 4.21Q57.15 4.14 57.09 4.10L57.09 4.10L57.09 4.10Q57.04 4.06 56.99 4.02L56.99 4.02L56.99 4.02Q56.94 3.99 56.90 3.97L56.90 3.97L56.90 3.97Q56.87 3.95 56.81 3.94L56.81 3.94L56.81 3.94Q56.76 3.93 56.73 3.93L56.73 3.93L56.73 3.93Q56.71 3.93 56.65 3.93L56.65 3.93L56.65 3.93Q56.59 3.92 56.57 3.92L56.57 3.92L56.57 3.92Q56.18 3.88 56.10 3.84L56.10 3.84L56.10 3.84Q56.01 3.81 56.01 3.70L56.01 3.70L56.01 3.70Q56.01 3.50 56.42 3.50L56.42 3.50L56.42 3.50Q56.50 3.50 56.97 3.53L56.97 3.53L56.97 3.53Q57.43 3.56 57.96 3.56L57.96 3.56L57.96 3.56Q57.99 3.56 58.34 3.53L58.34 3.53L58.34 3.53Q58.69 3.50 58.88 3.50L58.88 3.50L58.88 3.50Q59.30 3.50 59.30 3.61L59.30 3.61L59.30 3.61Q59.30 3.70 59.15 3.78L59.15 3.78L59.15 3.78Q59.00 3.86 58.85 4.00L58.85 4.00L58.85 4.00Q58.70 4.13 58.70 4.33L58.70 4.33L58.70 4.33Q58.70 4.59 59.14 5.57L59.14 5.57L59.14 5.57Q59.16 5.63 59.32 6.03L59.32 6.03L59.32 6.03Q59.49 6.44 59.61 6.71L59.61 6.71L59.61 6.71Q59.74 6.99 59.79 6.99L59.79 6.99L59.79 6.99Q59.91 6.99 60.35 5.76L60.35 5.76L60.35 5.76Q60.80 4.54 60.80 4.31L60.80 4.31L60.80 4.31Q60.80 4.06 60.59 3.96L60.59 3.96L60.59 3.96Q60.38 3.85 60.17 3.80L60.17 3.80L60.17 3.80Q59.96 3.75 59.96 3.64L59.96 3.64L59.96 3.64Q59.96 3.49 60.27 3.49L60.27 3.49L60.27 3.49Q60.35 3.49 60.69 3.50L60.69 3.50L60.69 3.50Q61.03 3.51 61.17 3.51L61.17 3.51L61.40 3.51L61.40 3.51Q61.60 3.51 62.15 3.47L62.15 3.47L62.27 3.47L62.27 3.47Q62.45 3.47 62.45 3.61L62.45 3.61L62.45 3.61Q62.45 3.75 62.19 3.84L62.19 3.84L62.19 3.84Q61.92 3.92 61.82 4.02L61.82 4.02L61.82 4.02Q61.60 4.24 61.43 4.66L61.43 4.66L61.43 4.66Q61.14 5.38 60.73 6.33L60.73 6.33L60.73 6.33Q60.31 7.31 60.24 7.50L60.24 7.50L60.24 7.50Q60.17 7.70 60.17 7.85L60.17 7.85L60.17 7.85Q60.17 7.97 61.03 9.87L61.03 9.87L61.03 9.87Q61.88 11.77 62.03 11.77L62.03 11.77L62.03 11.77Q62.20 11.77 63.66 8.24L63.66 8.24L63.66 8.24Q65.13 4.70 65.13 4.35L65.13 4.35L65.13 4.35Q65.13 4.13 64.97 4.01L64.97 4.01L64.97 4.01Q64.81 3.89 64.61 3.87L64.61 3.87L64.61 3.87Q64.41 3.85 64.25 3.80L64.25 3.80L64.25 3.80Q64.09 3.75 64.09 3.64L64.09 3.64L64.09 3.64Q64.09 3.54 64.13 3.52L64.13 3.52L64.13 3.52Q64.18 3.50 64.36 3.50L64.36 3.50L64.36 3.50Q64.40 3.50 64.68 3.51L64.68 3.51L64.68 3.51Q64.96 3.51 65.24 3.51L65.24 3.51L65.24 3.51Q65.49 3.51 65.81 3.50L65.81 3.50L65.81 3.50Q66.12 3.49 66.49 3.49L66.49 3.49L66.49 3.49Q66.77 3.49 66.77 3.68L66.77 3.68L66.77 3.68Q66.77 3.78 66.69 3.84L66.69 3.84L66.69 3.84Q66.61 3.89 66.46 3.98L66.46 3.98L66.46 3.98Q66.30 4.06 66.19 4.17L66.19 4.17L66.19 4.17Q66.12 4.24 66.07 4.31L66.07 4.31L66.07 4.31Q66.02 4.38 65.97 4.49L65.97 4.49L65.97 4.49Q65.91 4.59 65.88 4.66L65.88 4.66L65.88 4.66Q65.84 4.73 65.76 4.91L65.76 4.91L65.76 4.91Q65.69 5.08 65.65 5.18L65.65 5.18L65.65 5.18Q64.57 7.59 63.24 10.58L63.24 10.58L63.24 10.58Q62.17 13.01 61.98 13.41L61.98 13.41L61.98 13.41Q61.78 13.82 61.67 13.82L61.67 13.82L61.67 13.82Q61.60 13.82 61.50 13.64L61.50 13.64L61.50 13.64Q61.40 13.47 61.23 13.05L61.23 13.05L61.23 13.05Q61.05 12.64 61.03 12.57L61.03 12.57L61.03 12.57Q60.89 12.26 60.65 11.72L60.65 11.72L60.65 11.72Q60.42 11.17 60.26 10.79L60.26 10.79L60.26 10.79Q60.10 10.42 59.93 10.02L59.93 10.02L59.93 10.02Q59.77 9.63 59.65 9.43L59.65 9.43L59.65 9.43Q59.54 9.23 59.50 9.23L59.50 9.23L59.50 9.23Q59.36 9.23 58.55 11.16L58.55 11.16L58.55 11.16Q57.75 13.09 57.69 13.31L57.69 13.31L57.69 13.31Q57.68 13.37 57.66 13.43L57.66 13.43L57.66 13.43Q57.64 13.48 57.62 13.52L57.62 13.52L57.62 13.52Q57.61 13.57 57.60 13.61L57.60 13.61L57.60 13.61Q57.58 13.65 57.57 13.68L57.57 13.68L57.57 13.68Q57.55 13.71 57.55 13.73L57.55 13.73L57.55 13.73Q57.54 13.76 57.53 13.78L57.53 13.78L57.53 13.78Q57.51 13.80 57.50 13.82L57.50 13.82L57.50 13.82Q57.48 13.83 57.47 13.84L57.47 13.84L57.47 13.84Q57.46 13.85 57.44 13.85L57.44 13.85L57.44 13.85Q57.43 13.86 57.40 13.86L57.40 13.86L57.40 13.86Q57.27 13.86 57.09 13.46L57.09 13.46L57.09 13.46Q56.91 13.06 56.43 11.89L56.43 11.89L56.43 11.89Q55.96 10.72 55.47 9.65L55.47 9.65L55.47 9.65Q54.66 7.87 53.75 5.63L53.75 5.63L53.75 5.63Q53.48 4.96 53.17 4.57L53.17 4.57L53.17 4.57Q52.86 4.19 52.63 4.09L52.63 4.09L52.63 4.09Q52.39 3.99 52.19 3.98L52.19 3.98L52.19 3.98Q52.00 3.96 51.88 3.92L51.88 3.92L51.88 3.92Q51.77 3.88 51.77 3.71ZM74.31 3.65L74.31 3.65L74.31 3.65Q74.31 3.46 74.70 3.46L74.70 3.46L74.70 3.46Q74.76 3.46 74.89 3.47L74.89 3.47L74.89 3.47Q75.01 3.49 75.08 3.49L75.08 3.49L75.08 3.49Q75.12 3.49 76.40 3.52L76.40 3.52L76.40 3.52Q77.67 3.56 78.50 3.56L78.50 3.56L78.50 3.56Q78.79 3.56 79.95 3.53L79.95 3.53L79.95 3.53Q81.10 3.50 81.30 3.50L81.30 3.50L81.30 3.50Q81.56 3.50 81.56 3.82L81.56 3.82L81.56 3.82Q81.56 3.91 81.48 4.38L81.48 4.38L81.48 4.38Q81.40 4.84 81.40 5.25L81.40 5.25L81.40 5.25Q81.40 5.38 81.33 5.47L81.33 5.47L81.33 5.47Q81.26 5.56 81.17 5.56L81.17 5.56L81.17 5.56Q80.96 5.56 80.96 5.26L80.96 5.26L80.96 5.26Q80.96 4.89 80.72 4.58L80.72 4.58L80.72 4.58Q80.49 4.27 80.14 4.26L80.14 4.26L80.14 4.26Q78.88 4.16 78.20 4.16L78.20 4.16L77.84 4.16L77.84 4.16Q77.11 4.16 76.99 4.26L76.99 4.26L76.99 4.26Q76.87 4.37 76.85 5.01L76.85 5.01L76.85 5.01Q76.79 6.02 76.79 7.35L76.79 7.35L76.79 7.35Q76.79 8.05 77.06 8.06L77.06 8.06L77.41 8.06L77.99 8.06L78.43 8.06L78.43 8.06Q79.27 8.06 79.55 8.01L79.55 8.01L79.55 8.01Q79.83 7.95 80.05 7.80L80.05 7.80L80.05 7.80Q80.32 7.62 80.37 7.28L80.37 7.28L80.37 7.28Q80.42 7.04 80.57 7.04L80.57 7.04L80.57 7.04Q80.70 7.04 80.72 7.08L80.72 7.08L80.72 7.08Q80.75 7.13 80.75 7.27L80.75 7.27L80.75 7.27Q80.75 7.36 80.70 7.91L80.70 7.91L80.70 7.91Q80.64 8.46 80.64 8.74L80.64 8.74L80.64 8.74Q80.64 9.00 80.66 9.24L80.66 9.24L80.66 9.24Q80.68 9.48 80.68 9.59L80.68 9.59L80.68 9.59Q80.68 9.94 80.58 9.94L80.58 9.94L80.58 9.94Q80.37 9.94 80.28 9.60L80.28 9.60L80.28 9.60Q80.08 9.02 79.93 8.92L79.93 8.92L79.93 8.92Q79.63 8.72 78.58 8.72L78.58 8.72L78.58 8.72Q78.16 8.72 77.90 8.72L77.90 8.72L77.90 8.72Q77.64 8.72 77.57 8.71L77.57 8.71L77.57 8.71Q77.49 8.71 77.44 8.71L77.44 8.71L77.44 8.71Q77.39 8.71 77.35 8.71L77.35 8.71L77.35 8.71Q76.78 8.71 76.78 8.97L76.78 8.97L76.78 8.97Q76.78 9.38 76.76 9.99L76.76 9.99L76.76 9.99Q76.75 10.60 76.75 10.99L76.75 10.99L76.75 11.55L76.75 11.55Q76.75 12.56 77.08 12.66L77.08 12.66L77.08 12.66Q77.43 12.77 77.69 12.77L77.69 12.77L77.69 12.77Q78.74 12.77 79.53 12.67L79.53 12.67L79.53 12.67Q80.32 12.57 80.72 12.42L80.72 12.42L80.72 12.42Q81.12 12.28 81.38 12.10L81.38 12.10L81.38 12.10Q81.65 11.93 81.72 11.78L81.72 11.78L81.72 11.78Q81.80 11.63 81.88 11.54L81.88 11.54L81.88 11.54Q81.96 11.44 82.04 11.44L82.04 11.44L82.04 11.44Q82.21 11.44 82.21 11.68L82.21 11.68L82.21 11.68Q82.21 12.28 81.61 12.89L81.61 12.89L81.61 12.89Q81.00 13.51 80.56 13.51L80.56 13.51L80.56 13.51Q79.55 13.51 78.28 13.44L78.28 13.44L78.28 13.44Q77.01 13.37 76.71 13.37L76.71 13.37L76.71 13.37Q76.31 13.37 75.73 13.43L75.73 13.43L75.73 13.43Q75.14 13.50 74.80 13.50L74.80 13.50L74.80 13.50Q74.51 13.50 74.51 13.36L74.51 13.36L74.51 13.36Q74.51 13.23 74.51 13.19L74.51 13.19L74.51 13.19Q74.51 13.15 74.55 13.12L74.55 13.12L74.55 13.12Q74.59 13.09 74.64 13.08L74.64 13.08L74.64 13.08Q74.69 13.08 74.82 13.03L74.82 13.03L74.82 13.03Q74.96 12.99 75.11 12.92L75.11 12.92L75.11 12.92Q75.45 12.75 75.55 12.26L75.55 12.26L75.55 12.26Q75.66 11.77 75.66 10.21L75.66 10.21L75.66 8.47L75.66 8.47Q75.66 8.09 75.68 7.29L75.68 7.29L75.68 7.29Q75.70 6.50 75.70 6.05L75.70 6.05L75.70 6.05Q75.70 5.67 75.67 4.77L75.67 4.77L75.67 4.77Q75.66 4.37 75.32 4.14L75.32 4.14L75.32 4.14Q74.98 3.92 74.54 3.91L74.54 3.91L74.54 3.91Q74.31 3.91 74.31 3.65ZM89.77 3.71L89.77 3.71L89.77 3.71Q89.77 3.46 90.15 3.46L90.15 3.46L90.15 3.46Q90.20 3.46 90.33 3.47L90.33 3.47L90.33 3.47Q90.45 3.49 90.52 3.49L90.52 3.49L90.52 3.49Q90.66 3.49 91.05 3.51L91.05 3.51L91.05 3.51Q91.43 3.54 91.74 3.54L91.74 3.54L91.74 3.54Q92.18 3.54 92.67 3.51L92.67 3.51L92.67 3.51Q93.16 3.49 93.21 3.49L93.21 3.49L93.21 3.49Q93.45 3.49 93.45 3.63L93.45 3.63L93.45 3.63Q93.45 3.82 93.28 3.88L93.28 3.88L93.28 3.88Q93.11 3.95 92.91 3.97L92.91 3.97L92.91 3.97Q92.71 3.99 92.52 4.28L92.52 4.28L92.52 4.28Q92.33 4.56 92.30 5.14L92.30 5.14L92.30 5.14Q92.27 5.68 92.23 8.19L92.23 8.19L92.23 8.19Q92.19 10.70 92.19 10.99L92.19 10.99L92.19 11.55L92.19 11.55Q92.19 12.56 92.53 12.66L92.53 12.66L92.53 12.66Q92.88 12.77 93.13 12.77L93.13 12.77L93.13 12.77Q94.18 12.77 94.97 12.67L94.97 12.67L94.97 12.67Q95.76 12.57 96.16 12.42L96.16 12.42L96.16 12.42Q96.56 12.28 96.82 12.10L96.82 12.10L96.82 12.10Q97.09 11.93 97.17 11.78L97.17 11.78L97.17 11.78Q97.24 11.63 97.32 11.54L97.32 11.54L97.32 11.54Q97.40 11.44 97.48 11.44L97.48 11.44L97.48 11.44Q97.65 11.44 97.65 11.68L97.65 11.68L97.65 11.68Q97.65 12.28 97.05 12.89L97.05 12.89L97.05 12.89Q96.45 13.51 96.00 13.51L96.00 13.51L96.00 13.51Q94.99 13.51 93.72 13.44L93.72 13.44L93.72 13.44Q92.46 13.37 92.15 13.37L92.15 13.37L92.15 13.37Q91.76 13.37 91.25 13.43L91.25 13.43L91.25 13.43Q90.73 13.48 90.40 13.48L90.40 13.48L90.40 13.48Q89.99 13.48 89.99 13.31L89.99 13.31L89.99 13.31Q89.99 13.22 90.07 13.15L90.07 13.15L90.07 13.15Q90.15 13.09 90.22 13.09L90.22 13.09L90.22 13.09Q90.43 13.09 90.62 12.95L90.62 12.95L90.62 12.95Q90.87 12.75 90.99 12.23L90.99 12.23L90.99 12.23Q91.10 11.70 91.10 10.21L91.10 10.21L91.10 8.47L91.10 8.47Q91.10 8.09 91.12 7.29L91.12 7.29L91.12 7.29Q91.14 6.50 91.14 6.05L91.14 6.05L91.14 6.05Q91.14 5.67 91.11 4.77L91.11 4.77L91.11 4.77Q91.10 4.37 90.76 4.14L90.76 4.14L90.76 4.14Q90.43 3.92 89.98 3.91L89.98 3.91L89.98 3.91Q89.84 3.91 89.80 3.86L89.80 3.86L89.80 3.86Q89.77 3.81 89.77 3.71ZM115.53 8.90L115.53 8.90L115.53 8.90Q115.53 7.38 116.12 6.16L116.12 6.16L116.12 6.16Q116.70 4.94 117.93 4.19L117.93 4.19L117.93 4.19Q119.15 3.44 120.83 3.44L120.83 3.44L120.83 3.44Q121.69 3.44 122.56 3.70L122.56 3.70L122.56 3.70Q123.42 3.95 123.94 4.20L123.94 4.20L124.46 4.47L124.46 4.47Q124.50 4.47 124.60 4.40L124.60 4.40L124.60 4.40Q124.70 4.33 124.75 4.33L124.75 4.33L124.75 4.33Q124.82 4.33 124.89 4.38L124.89 4.38L124.89 4.38Q124.96 4.44 124.96 4.55L124.96 4.55L124.96 4.55Q124.98 4.96 125.03 5.41L125.03 5.41L125.03 5.41Q125.08 5.87 125.12 6.16L125.12 6.16L125.12 6.16Q125.16 6.45 125.16 6.51L125.16 6.51L125.16 6.51Q125.16 6.76 124.99 6.76L124.99 6.76L124.99 6.76Q124.87 6.76 124.75 6.57L124.75 6.57L124.75 6.57Q123.40 4.02 120.83 4.02L120.83 4.02L120.83 4.02Q119.08 4.02 117.96 5.14L117.96 5.14L117.96 5.14Q116.84 6.26 116.84 8.06L116.84 8.06L116.84 8.06Q116.84 9.06 117.10 9.93L117.10 9.93L117.10 9.93Q117.36 10.79 117.89 11.51L117.89 11.51L117.89 11.51Q118.41 12.24 119.34 12.66L119.34 12.66L119.34 12.66Q120.26 13.08 121.49 13.08L121.49 13.08L121.49 13.08Q123.51 13.08 124.88 10.98L124.88 10.98L124.88 10.98Q124.94 10.88 125.09 10.88L125.09 10.88L125.09 10.88Q125.22 10.88 125.22 11.07L125.22 11.07L125.22 11.07Q125.22 11.23 125.17 11.49L125.17 11.49L125.17 11.49Q125.12 11.75 125.05 12.06L125.05 12.06L125.05 12.06Q124.98 12.38 124.96 12.45L124.96 12.45L124.96 12.45Q124.94 12.60 124.74 12.70L124.74 12.70L124.74 12.70Q123.98 13.06 123.56 13.24L123.56 13.24L123.56 13.24Q123.13 13.43 122.47 13.57L122.47 13.57L122.47 13.57Q121.81 13.72 121.13 13.72L121.13 13.72L121.13 13.72Q119.91 13.72 118.93 13.43L118.93 13.43L118.93 13.43Q117.95 13.13 117.33 12.66L117.33 12.66L117.33 12.66Q116.70 12.18 116.28 11.54L116.28 11.54L116.28 11.54Q115.86 10.91 115.70 10.25L115.70 10.25L115.70 10.25Q115.53 9.60 115.53 8.90ZM133.49 3.71L133.49 3.71L133.49 3.71Q133.49 3.46 133.87 3.46L133.87 3.46L133.87 3.46Q133.92 3.46 134.05 3.47L134.05 3.47L134.05 3.47Q134.18 3.49 134.25 3.49L134.25 3.49L134.25 3.49Q134.39 3.49 134.77 3.51L134.77 3.51L134.77 3.51Q135.16 3.54 135.46 3.54L135.46 3.54L135.46 3.54Q135.90 3.54 136.39 3.51L136.39 3.51L136.39 3.51Q136.88 3.49 136.93 3.49L136.93 3.49L136.93 3.49Q137.17 3.49 137.17 3.63L137.17 3.63L137.17 3.63Q137.17 3.82 137.00 3.88L137.00 3.88L137.00 3.88Q136.84 3.95 136.63 3.97L136.63 3.97L136.63 3.97Q136.43 3.99 136.24 4.28L136.24 4.28L136.24 4.28Q136.05 4.56 136.02 5.14L136.02 5.14L136.02 5.14Q136.00 5.68 135.95 8.19L135.95 8.19L135.95 8.19Q135.91 10.70 135.91 10.99L135.91 10.99L135.91 11.55L135.91 11.55Q135.91 12.56 136.25 12.66L136.25 12.66L136.25 12.66Q136.60 12.77 136.85 12.77L136.85 12.77L136.85 12.77Q137.90 12.77 138.69 12.67L138.69 12.67L138.69 12.67Q139.48 12.57 139.88 12.42L139.88 12.42L139.88 12.42Q140.28 12.28 140.55 12.10L140.55 12.10L140.55 12.10Q140.81 11.93 140.89 11.78L140.89 11.78L140.89 11.78Q140.97 11.63 141.04 11.54L141.04 11.54L141.04 11.54Q141.12 11.44 141.20 11.44L141.20 11.44L141.20 11.44Q141.37 11.44 141.37 11.68L141.37 11.68L141.37 11.68Q141.37 12.28 140.77 12.89L140.77 12.89L140.77 12.89Q140.17 13.51 139.72 13.51L139.72 13.51L139.72 13.51Q138.71 13.51 137.45 13.44L137.45 13.44L137.45 13.44Q136.18 13.37 135.87 13.37L135.87 13.37L135.87 13.37Q135.48 13.37 134.97 13.43L134.97 13.43L134.97 13.43Q134.46 13.48 134.12 13.48L134.12 13.48L134.12 13.48Q133.71 13.48 133.71 13.31L133.71 13.31L133.71 13.31Q133.71 13.22 133.79 13.15L133.79 13.15L133.79 13.15Q133.87 13.09 133.94 13.09L133.94 13.09L133.94 13.09Q134.15 13.09 134.34 12.95L134.34 12.95L134.34 12.95Q134.60 12.75 134.71 12.23L134.71 12.23L134.71 12.23Q134.82 11.70 134.82 10.21L134.82 10.21L134.82 8.47L134.82 8.47Q134.82 8.09 134.84 7.29L134.84 7.29L134.84 7.29Q134.86 6.50 134.86 6.05L134.86 6.05L134.86 6.05Q134.86 5.67 134.83 4.77L134.83 4.77L134.83 4.77Q134.82 4.37 134.48 4.14L134.48 4.14L134.48 4.14Q134.15 3.92 133.70 3.91L133.70 3.91L133.70 3.91Q133.56 3.91 133.53 3.86L133.53 3.86L133.53 3.86Q133.49 3.81 133.49 3.71ZM149.27 8.69L149.27 8.69L149.27 8.69Q149.27 6.34 150.68 4.84L150.68 4.84L150.68 4.84Q152.10 3.33 154.69 3.33L154.69 3.33L154.69 3.33Q155.89 3.33 156.86 3.68L156.86 3.68L156.86 3.68Q157.82 4.03 158.38 4.54L158.38 4.54L158.38 4.54Q158.94 5.05 159.32 5.71L159.32 5.71L159.32 5.71Q159.70 6.37 159.84 6.92L159.84 6.92L159.84 6.92Q159.98 7.48 159.98 7.95L159.98 7.95L159.98 7.95Q159.98 9.86 159.24 11.16L159.24 11.16L159.24 11.16Q158.49 12.47 157.28 13.07L157.28 13.07L157.28 13.07Q156.07 13.66 154.49 13.66L154.49 13.66L154.49 13.66Q152.82 13.66 151.61 12.94L151.61 12.94L151.61 12.94Q150.40 12.21 149.84 11.10L149.84 11.10L149.84 11.10Q149.27 10.00 149.27 8.69ZM150.50 7.98L150.50 7.98L150.50 7.98Q150.50 8.54 150.65 9.19L150.65 9.19L150.65 9.19Q150.81 9.84 151.16 10.54L151.16 10.54L151.16 10.54Q151.51 11.23 152.01 11.78L152.01 11.78L152.01 11.78Q152.50 12.33 153.27 12.69L153.27 12.69L153.27 12.69Q154.03 13.05 154.94 13.05L154.94 13.05L154.94 13.05Q155.41 13.05 155.94 12.90L155.94 12.90L155.94 12.90Q156.46 12.75 156.98 12.45L156.98 12.45L156.98 12.45Q157.50 12.14 157.91 11.70L157.91 11.70L157.91 11.70Q158.31 11.26 158.57 10.62L158.57 10.62L158.57 10.62Q158.83 9.98 158.83 9.24L158.83 9.24L158.83 9.24Q158.83 6.71 157.50 5.30L157.50 5.30L157.50 5.30Q156.17 3.89 154.21 3.89L154.21 3.89L154.21 3.89Q152.67 3.89 151.59 4.93L151.59 4.93L151.59 4.93Q150.50 5.96 150.50 7.98ZM167.87 3.68L167.87 3.68L167.87 3.68Q167.87 3.61 167.89 3.58L167.89 3.58L167.89 3.58Q167.90 3.56 167.97 3.53L167.97 3.53L167.97 3.53Q168.04 3.50 168.20 3.50L168.20 3.50L168.20 3.50Q168.35 3.50 168.84 3.53L168.84 3.53L168.84 3.53Q169.33 3.56 169.78 3.56L169.78 3.56L169.78 3.56Q170.06 3.56 170.29 3.54L170.29 3.54L170.29 3.54Q170.52 3.53 171.09 3.53L171.09 3.53L171.09 3.53Q171.39 3.53 171.39 3.72L171.39 3.72L171.39 3.72Q171.39 3.85 171.29 3.88L171.29 3.88L171.29 3.88Q171.19 3.91 171.05 3.92L171.05 3.92L171.05 3.92Q170.90 3.93 170.75 4.02L170.75 4.02L170.75 4.02Q170.60 4.10 170.51 4.43L170.51 4.43L170.51 4.43Q170.41 4.76 170.41 5.32L170.41 5.32L170.41 5.71L170.41 5.71Q170.41 6.37 170.40 7.37L170.40 7.37L170.40 7.37Q170.39 8.37 170.39 8.74L170.39 8.74L170.39 8.74Q170.39 9.17 170.40 9.39L170.40 9.39L170.40 9.39Q170.41 9.62 170.44 10.04L170.44 10.04L170.44 10.04Q170.46 10.47 170.51 10.72L170.51 10.72L170.51 10.72Q170.56 10.96 170.67 11.32L170.67 11.32L170.67 11.32Q170.79 11.68 170.95 11.89L170.95 11.89L170.95 11.89Q171.11 12.10 171.35 12.35L171.35 12.35L171.35 12.35Q171.60 12.60 171.92 12.73L171.92 12.73L171.92 12.73Q172.24 12.87 172.68 12.96L172.68 12.96L172.68 12.96Q173.11 13.05 173.64 13.05L173.64 13.05L173.64 13.05Q174.09 13.05 174.34 13.03L174.34 13.03L174.34 13.03Q174.59 13.02 175.04 12.94L175.04 12.94L175.04 12.94Q175.48 12.87 175.74 12.72L175.74 12.72L175.74 12.72Q175.99 12.57 176.32 12.27L176.32 12.27L176.32 12.27Q176.65 11.97 176.83 11.54L176.83 11.54L176.83 11.54Q177.02 11.10 177.14 10.43L177.14 10.43L177.14 10.43Q177.27 9.76 177.27 8.90L177.27 8.90L177.27 8.90Q177.27 7.49 177.26 6.75L177.26 6.75L177.26 6.75Q177.25 6.01 177.25 5.94L177.25 5.94L177.25 5.94Q177.25 5.45 177.23 5.17L177.23 5.17L177.23 5.17Q177.21 4.89 177.09 4.55L177.09 4.55L177.09 4.55Q176.97 4.21 176.75 4.06L176.75 4.06L176.75 4.06Q176.61 3.96 176.39 3.93L176.39 3.93L176.39 3.93Q176.16 3.89 176.02 3.87L176.02 3.87L176.02 3.87Q175.88 3.85 175.88 3.75L175.88 3.75L175.88 3.75Q175.88 3.53 176.16 3.53L176.16 3.53L176.16 3.53Q176.25 3.53 176.71 3.54L176.71 3.54L176.71 3.54Q177.17 3.56 177.24 3.56L177.24 3.56L177.24 3.56Q177.58 3.56 177.95 3.54L177.95 3.54L177.95 3.54Q178.33 3.51 178.43 3.51L178.43 3.51L178.43 3.51Q178.72 3.51 178.72 3.70L178.72 3.70L178.72 3.70Q178.72 3.81 178.42 3.98L178.42 3.98L178.42 3.98Q178.12 4.16 178.05 4.30L178.05 4.30L178.05 4.30Q177.90 4.59 177.90 5.22L177.90 5.22L177.90 5.22Q177.90 5.32 177.91 5.62L177.91 5.62L177.91 5.62Q177.91 5.92 177.91 6.16L177.91 6.16L177.91 6.16Q177.91 8.85 177.69 10.28L177.69 10.28L177.69 10.28Q177.46 11.70 177.01 12.36L177.01 12.36L177.01 12.36Q176.55 13.01 175.64 13.40L175.64 13.40L175.64 13.40Q174.90 13.71 173.64 13.71L173.64 13.71L173.64 13.71Q171.30 13.71 170.32 12.81L170.32 12.81L170.32 12.81Q169.55 12.10 169.37 11.09L169.37 11.09L169.37 11.09Q169.19 10.09 169.19 7.64L169.19 7.64L169.19 7.41L169.19 7.41Q169.19 6.86 169.20 6.20L169.20 6.20L169.20 6.20Q169.22 5.54 169.22 5.39L169.22 5.39L169.22 5.39Q169.22 4.62 169.04 4.33L169.04 4.33L169.04 4.33Q168.85 4.05 168.18 3.95L168.18 3.95L168.18 3.95Q167.87 3.91 167.87 3.68ZM186.28 3.64L186.28 3.64L186.28 3.64Q186.28 3.51 186.40 3.49L186.40 3.49L186.40 3.49Q186.52 3.47 187.00 3.47L187.00 3.47L188.22 3.47L188.22 3.47Q188.57 3.47 189.50 3.44L189.50 3.44L189.50 3.44Q190.44 3.42 190.95 3.42L190.95 3.42L190.95 3.42Q191.91 3.42 192.88 3.71L192.88 3.71L192.88 3.71Q193.84 4.00 194.66 4.56L194.66 4.56L194.66 4.56Q195.47 5.11 195.97 6.00L195.97 6.00L195.97 6.00Q196.48 6.89 196.48 7.98L196.48 7.98L196.48 7.98Q196.48 8.96 196.34 9.68L196.34 9.68L196.34 9.68Q196.21 10.40 195.90 10.93L195.90 10.93L195.90 10.93Q195.59 11.45 195.29 11.78L195.29 11.78L195.29 11.78Q194.98 12.11 194.45 12.56L194.45 12.56L194.45 12.56Q194.03 12.89 193.23 13.19L193.23 13.19L193.23 13.19Q192.43 13.48 191.59 13.48L191.59 13.48L191.59 13.48Q191.51 13.48 190.16 13.45L190.16 13.45L190.16 13.45Q188.82 13.41 188.23 13.41L188.23 13.41L188.23 13.41Q187.74 13.41 187.32 13.45L187.32 13.45L187.32 13.45Q186.90 13.48 186.83 13.48L186.83 13.48L186.83 13.48Q186.49 13.48 186.49 13.30L186.49 13.30L186.49 13.30Q186.49 13.19 186.54 13.14L186.54 13.14L186.54 13.14Q186.59 13.09 186.75 13.05L186.75 13.05L186.75 13.05Q186.91 13.01 186.98 12.98L186.98 12.98L186.98 12.98Q187.21 12.88 187.40 12.61L187.40 12.61L187.40 12.61Q187.59 12.33 187.59 12.07L187.59 12.07L187.59 12.07Q187.59 11.28 187.59 10.07L187.59 10.07L187.59 10.07Q187.60 8.85 187.60 8.27L187.60 8.27L187.60 8.27Q187.60 7.77 187.59 6.70L187.59 6.70L187.59 6.70Q187.59 5.63 187.59 4.72L187.59 4.72L187.59 4.72Q187.59 4.48 187.36 4.23L187.36 4.23L187.36 4.23Q187.12 3.99 186.84 3.98L186.84 3.98L186.84 3.98Q186.65 3.96 186.56 3.95L186.56 3.95L186.56 3.95Q186.47 3.93 186.38 3.86L186.38 3.86L186.38 3.86Q186.28 3.78 186.28 3.64ZM188.76 11.47L188.76 11.47L188.76 11.47Q188.76 11.73 188.77 11.90L188.77 11.90L188.77 11.90Q188.78 12.07 188.83 12.21L188.83 12.21L188.83 12.21Q188.87 12.35 188.90 12.40L188.90 12.40L188.90 12.40Q188.93 12.46 189.07 12.53L189.07 12.53L189.07 12.53Q189.21 12.60 189.29 12.62L189.29 12.62L189.29 12.62Q189.36 12.64 189.62 12.71L189.62 12.71L189.62 12.71Q189.87 12.78 190.04 12.82L190.04 12.82L190.04 12.82Q190.53 12.96 191.06 12.96L191.06 12.96L191.34 12.96L191.34 12.96Q192.29 12.96 192.96 12.69L192.96 12.69L192.96 12.69Q193.63 12.42 194.25 11.83L194.25 11.83L194.25 11.83Q195.29 10.84 195.29 8.61L195.29 8.61L195.29 8.61Q195.29 7.49 194.85 6.58L194.85 6.58L194.85 6.58Q194.40 5.67 193.69 5.13L193.69 5.13L193.69 5.13Q192.98 4.59 192.15 4.30L192.15 4.30L192.15 4.30Q191.32 4.02 190.48 4.02L190.48 4.02L190.48 4.02Q190.11 4.02 189.93 4.02L189.93 4.02L189.93 4.02Q189.76 4.02 189.53 4.05L189.53 4.05L189.53 4.05Q189.29 4.09 189.22 4.11L189.22 4.11L189.22 4.11Q189.14 4.13 189.03 4.25L189.03 4.25L189.03 4.25Q188.92 4.37 188.90 4.45L188.90 4.45L188.90 4.45Q188.87 4.54 188.84 4.78L188.84 4.78L188.84 4.78Q188.80 5.03 188.80 5.21L188.80 5.21L188.80 5.21Q188.80 5.39 188.80 5.80L188.80 5.80L188.80 5.80Q188.80 6.10 188.79 7.24L188.79 7.24L188.79 7.24Q188.78 8.39 188.78 8.48L188.78 8.48L188.78 8.48Q188.78 9.32 188.77 10.30L188.77 10.30L188.77 10.30Q188.76 11.28 188.76 11.47Z"></path></g></svg>