<svg data-v-423bf9ae="" xmlns="http://www.w3.org/2000/svg" viewBox="0 0 424 90" class="iconLeftSlogan"><!----><!----><!----><g data-v-423bf9ae="" id="03359893-aa66-49c8-9e0d-35229620a94a" fill="black" transform="matrix(6.521739265643809,0,0,6.521739265643809,109.0869548545835,-9.52173909978741)"><path d="M4.75 8.97L4.75 8.97L4.75 8.97Q4.94 8.97 5.14 8.96L5.14 8.96L5.14 8.96Q5.33 8.95 5.49 8.92L5.49 8.92L5.49 8.92Q5.67 8.89 5.84 8.85L5.84 8.85L5.81 10.43L5.81 10.43Q5.57 10.49 5.31 10.54L5.31 10.54L5.31 10.54Q5.07 10.58 4.75 10.62L4.75 10.62L4.75 10.62Q4.44 10.65 4.07 10.65L4.07 10.65L4.07 10.65Q3.37 10.61 2.81 10.36L2.81 10.36L2.81 10.36Q2.58 10.25 2.35 10.08L2.35 10.08L2.35 10.08Q2.13 9.91 1.95 9.66L1.95 9.66L1.95 9.66Q1.78 9.41 1.67 9.08L1.67 9.08L1.67 9.08Q1.57 8.75 1.57 8.30L1.57 8.30L1.57 5.53L0.14 5.53L0.14 3.75L1.61 3.75L2.06 1.46L4.07 1.46L4.07 3.75L5.87 3.75L5.87 5.53L4.10 5.53L4.10 8.33L4.10 8.33Q4.13 8.68 4.29 8.83L4.29 8.83L4.29 8.83Q4.45 8.97 4.75 8.97ZM12.14 3.04L12.01 5.22L12.01 5.22Q11.20 5.04 10.70 5.24L10.70 5.24L10.70 5.24Q10.19 5.43 9.90 5.81L9.90 5.81L9.90 5.81Q9.62 6.19 9.51 6.64L9.51 6.64L9.51 6.64Q9.41 7.10 9.41 7.41L9.41 7.41L9.41 10.50L6.92 10.50L6.92 3.22L8.83 3.22L9.21 4.55L9.21 4.55Q9.21 4.55 9.34 4.31L9.34 4.31L9.34 4.31Q9.46 4.07 9.80 3.79L9.80 3.79L9.80 3.79Q10.14 3.51 10.70 3.28L10.70 3.28L10.70 3.28Q11.27 3.04 12.14 3.04L12.14 3.04ZM16.09 10.65L16.09 10.65L16.09 10.65Q15.53 10.65 14.97 10.54L14.97 10.54L14.97 10.54Q14.42 10.43 13.98 10.08L13.98 10.08L13.98 10.08Q13.54 9.73 13.26 9.09L13.26 9.09L13.26 9.09Q12.98 8.44 12.98 7.36L12.98 7.36L12.98 3.22L15.32 3.22L15.32 6.52L15.32 6.52Q15.32 7.56 15.65 8.10L15.65 8.10L15.65 8.10Q15.99 8.64 16.62 8.64L16.62 8.64L16.62 8.64Q17.07 8.64 17.37 8.44L17.37 8.44L17.37 8.44Q17.68 8.25 17.87 7.90L17.87 7.90L17.87 7.90Q18.06 7.56 18.14 7.08L18.14 7.08L18.14 7.08Q18.23 6.61 18.23 6.05L18.23 6.05L18.23 3.22L20.75 3.22L20.75 10.50L18.86 10.50L18.44 9.13L18.44 9.13Q18.44 9.13 18.31 9.37L18.31 9.37L18.31 9.37Q18.19 9.60 17.91 9.89L17.91 9.89L17.91 9.89Q17.63 10.18 17.18 10.42L17.18 10.42L17.18 10.42Q16.73 10.65 16.09 10.65ZM32.16 3.22L34.64 3.22L32.40 10.50L29.43 10.50L28.24 5.21L26.80 10.50L23.87 10.50L21.66 3.22L24.26 3.22L25.45 8.53L26.73 3.22L29.78 3.22L31.01 8.53L31.01 8.53Q31.01 8.53 31.09 8.13L31.09 8.13L31.09 8.13Q31.18 7.74 31.30 7.15L31.30 7.15L31.30 7.15Q31.43 6.57 31.58 5.88L31.58 5.88L31.58 5.88Q31.72 5.19 31.86 4.61L31.86 4.61L31.86 4.61Q31.99 4.02 32.07 3.62L32.07 3.62L32.07 3.62Q32.16 3.22 32.16 3.22L32.16 3.22ZM39.76 10.65L39.76 10.65L39.76 10.65Q38.43 10.65 37.56 10.31L37.56 10.31L37.56 10.31Q36.69 9.97 36.18 9.43L36.18 9.43L36.18 9.43Q35.67 8.89 35.47 8.21L35.47 8.21L35.47 8.21Q35.27 7.53 35.27 6.86L35.27 6.86L35.27 6.86Q35.27 6.19 35.47 5.51L35.47 5.51L35.47 5.51Q35.67 4.83 36.13 4.28L36.13 4.28L36.13 4.28Q36.58 3.72 37.32 3.38L37.32 3.38L37.32 3.38Q38.05 3.04 39.10 3.04L39.10 3.04L39.10 3.04Q40.18 3.04 40.91 3.38L40.91 3.38L40.91 3.38Q41.64 3.72 42.07 4.28L42.07 4.28L42.07 4.28Q42.50 4.83 42.69 5.51L42.69 5.51L42.69 5.51Q42.87 6.19 42.87 6.86L42.87 6.86L42.87 7.56L37.83 7.56L37.83 7.56Q37.84 7.73 37.96 7.97L37.96 7.97L37.96 7.97Q38.08 8.22 38.33 8.44L38.33 8.44L38.33 8.44Q38.58 8.65 38.98 8.81L38.98 8.81L38.98 8.81Q39.38 8.96 39.96 8.96L39.96 8.96L39.96 8.96Q40.49 8.96 40.93 8.87L40.93 8.87L40.93 8.87Q41.37 8.78 41.68 8.67L41.68 8.67L41.68 8.67Q42.04 8.53 42.31 8.36L42.31 8.36L42.31 10.07L42.31 10.07Q42.31 10.08 42.09 10.17L42.09 10.17L42.09 10.17Q41.87 10.26 41.52 10.37L41.52 10.37L41.52 10.37Q41.16 10.47 40.70 10.56L40.70 10.56L40.70 10.56Q40.24 10.65 39.76 10.65ZM37.83 6.13L40.60 6.13L40.60 6.13Q40.60 5.89 40.53 5.63L40.53 5.63L40.53 5.63Q40.46 5.36 40.29 5.14L40.29 5.14L40.29 5.14Q40.12 4.91 39.86 4.77L39.86 4.77L39.86 4.77Q39.59 4.62 39.20 4.62L39.20 4.62L39.20 4.62Q38.81 4.62 38.54 4.77L38.54 4.77L38.54 4.77Q38.28 4.91 38.12 5.14L38.12 5.14L38.12 5.14Q37.97 5.36 37.90 5.63L37.90 5.63L37.90 5.63Q37.83 5.89 37.83 6.13L37.83 6.13ZM47.68 8.67L47.68 8.67L47.68 8.67Q47.74 8.67 47.91 8.68L47.91 8.68L47.91 8.68Q48.08 8.69 48.22 8.67L48.22 8.67L48.22 10.56L48.22 10.56Q48.02 10.60 47.82 10.62L47.82 10.62L47.82 10.62Q47.63 10.64 47.47 10.65L47.47 10.65L47.47 10.65Q47.29 10.67 47.11 10.65L47.11 10.65L47.11 10.65Q46.58 10.65 46.11 10.58L46.11 10.58L46.11 10.58Q45.64 10.50 45.28 10.23L45.28 10.23L45.28 10.23Q44.93 9.97 44.72 9.46L44.72 9.46L44.72 9.46Q44.51 8.96 44.51 8.09L44.51 8.09L44.51 1.55L47.03 1.55L47.03 8.04L47.03 8.04Q47.05 8.39 47.22 8.53L47.22 8.53L47.22 8.53Q47.38 8.67 47.68 8.67Z"></path></g><!----><g data-v-423bf9ae="" id="79786a68-d5a5-4f8d-a499-d3beb8512990" transform="matrix(2.8125,0,0,2.8125,0,0)" stroke="none" fill="black"><path d="M15.965 16.258l.707-.707 10.39 10.39-.707.707z"></path><path d="M4.935 26.357L26.018 5.274l.707.707L5.642 27.065z"></path><path d="M31 1v4.194h-4.194V1H31m1-1h-6.194v6.194H32V0zM31 26.806V31h-4.194v-4.194H31m1-1h-6.194V32H32v-6.194zM5.194 26.806V31H1v-4.194h4.194m1-1H0V32h6.194v-6.194z"></path></g><!----><g data-v-423bf9ae="" id="22e2e605-9e1a-4881-827b-f67be89c5d45" fill="black" transform="matrix(3.5764498267742266,0,0,3.5764498267742266,107.49648792537906,50.3793508832746)"><path d="M1.16 7.70C1.16 6.33 1.54 5.22 2.30 4.38C3.06 3.53 4.07 3.11 5.32 3.11C6.51 3.11 7.56 3.54 8.47 4.41L8.47 3.81C7.62 3.06 6.57 2.69 5.32 2.69C3.97 2.69 2.86 3.16 2.00 4.09C1.13 5.03 0.70 6.23 0.70 7.70C0.70 9.17 1.13 10.37 2.00 11.30C2.86 12.24 3.97 12.71 5.32 12.71C6.57 12.71 7.62 12.34 8.47 11.59L8.47 11.03C7.60 11.87 6.55 12.29 5.32 12.29C4.07 12.29 3.06 11.87 2.30 11.03C1.54 10.18 1.16 9.07 1.16 7.70ZM17.85 2.80L17.85 12.60L22.33 12.60L22.33 12.19L18.27 12.19L18.27 2.80ZM30.17 7.70C30.17 6.38 30.58 5.29 31.39 4.41C32.20 3.53 33.23 3.09 34.47 3.09C35.71 3.09 36.74 3.53 37.55 4.41C38.36 5.29 38.77 6.38 38.77 7.70C38.77 9.02 38.36 10.11 37.55 10.99C36.74 11.87 35.71 12.31 34.47 12.31C33.23 12.31 32.20 11.87 31.39 10.99C30.58 10.11 30.17 9.02 30.17 7.70ZM29.75 7.70C29.75 9.16 30.20 10.36 31.09 11.30C31.98 12.24 33.11 12.71 34.47 12.71C35.83 12.71 36.96 12.24 37.85 11.30C38.74 10.36 39.19 9.16 39.19 7.70C39.19 6.24 38.74 5.04 37.85 4.10C36.96 3.16 35.83 2.69 34.47 2.69C33.11 2.69 31.98 3.16 31.09 4.10C30.20 5.04 29.75 6.24 29.75 7.70ZM48.08 2.80L48.08 9.24C48.08 10.29 48.36 11.13 48.93 11.77C49.50 12.42 50.26 12.74 51.20 12.74C52.14 12.74 52.90 12.42 53.47 11.77C54.04 11.13 54.32 10.29 54.32 9.24L54.32 2.80L53.90 2.80L53.90 9.24C53.90 10.17 53.65 10.92 53.14 11.47C52.63 12.02 51.98 12.29 51.20 12.29C50.41 12.29 49.77 12.02 49.26 11.47C48.75 10.92 48.50 10.17 48.50 9.24L48.50 2.80ZM63.77 2.80L63.77 12.60L66.15 12.60C67.57 12.60 68.71 12.15 69.56 11.25C70.41 10.35 70.84 9.17 70.84 7.70C70.84 6.23 70.41 5.05 69.56 4.15C68.71 3.25 67.57 2.80 66.15 2.80ZM64.19 3.22L66.15 3.22C67.45 3.22 68.48 3.63 69.24 4.46C70.01 5.28 70.39 6.37 70.39 7.70C70.39 9.09 70.01 10.18 69.26 10.98C68.50 11.78 67.47 12.18 66.15 12.18L64.19 12.18Z"></path></g></svg>